<?xml version="1.0" encoding="UTF-8" standalone="no"?>
<!DOCTYPE svg PUBLIC "-//W3C//DTD SVG 1.1//EN"
 "http://www.w3.org/Graphics/SVG/1.1/DTD/svg11.dtd">
<!-- Generated by graphviz version 2.42.3 (20191010.1750)
 -->
<!-- Title: dot_graph Pages: 1 -->
<svg width="345pt" height="118pt"
 viewBox="0.00 0.00 344.79 118.16" xmlns="http://www.w3.org/2000/svg" xmlns:xlink="http://www.w3.org/1999/xlink">
<g id="graph0" class="graph" transform="scale(1 1) rotate(0) translate(4 114.16)">
<title>dot_graph</title>
<polygon fill="white" stroke="transparent" points="-4,4 -4,-114.16 340.79,-114.16 340.79,4 -4,4"/>
<!-- &#45;1 -->
<g id="node1" class="node">
<title>&#45;1</title>
<ellipse fill="none" stroke="black" cx="18.2" cy="-59.16" rx="18.4" ry="18.4"/>
<text text-anchor="middle" x="18.2" y="-55.46" font-family="Times,serif" font-size="14.00">&#45;1</text>
</g>
<!-- 1 -->
<g id="node2" class="node">
<title>1</title>
<ellipse fill="none" stroke="black" cx="118.4" cy="-86.16" rx="18" ry="18"/>
<text text-anchor="middle" x="118.4" y="-82.46" font-family="Times,serif" font-size="14.00">1</text>
</g>
<!-- &#45;1&#45;&gt;1 -->
<g id="edge1" class="edge">
<title>&#45;1&#45;&gt;1</title>
<path fill="none" stroke="black" d="M35.86,-63.75C50.95,-67.9 73.45,-74.08 90.99,-78.91"/>
<polygon fill="black" stroke="black" points="90.09,-82.29 100.66,-81.56 91.94,-75.54 90.09,-82.29"/>
<text text-anchor="middle" x="68.4" y="-78.96" font-family="Times,serif" font-size="14.00">(1,0)</text>
</g>
<!-- 0 -->
<g id="node3" class="node">
<title>0</title>
<ellipse fill="none" stroke="black" cx="118.4" cy="-32.16" rx="18" ry="18"/>
<text text-anchor="middle" x="118.4" y="-28.46" font-family="Times,serif" font-size="14.00">0</text>
</g>
<!-- &#45;1&#45;&gt;0 -->
<g id="edge2" class="edge">
<title>&#45;1&#45;&gt;0</title>
<path fill="none" stroke="black" d="M35.86,-54.58C50.95,-50.43 73.45,-44.25 90.99,-39.42"/>
<polygon fill="black" stroke="black" points="91.94,-42.79 100.66,-36.77 90.09,-36.04 91.94,-42.79"/>
<text text-anchor="middle" x="68.4" y="-51.96" font-family="Times,serif" font-size="14.00">(1,0)</text>
</g>
<!-- 3 -->
<g id="node4" class="node">
<title>3</title>
<ellipse fill="none" stroke="black" cx="218.4" cy="-86.16" rx="18" ry="18"/>
<text text-anchor="middle" x="218.4" y="-82.46" font-family="Times,serif" font-size="14.00">3</text>
</g>
<!-- 1&#45;&gt;3 -->
<g id="edge5" class="edge">
<title>1&#45;&gt;3</title>
<path fill="none" stroke="black" d="M136,-90.76C141.78,-92.15 148.33,-93.48 154.4,-94.16 166.76,-95.56 170.03,-95.56 182.4,-94.16 185.15,-93.85 188,-93.41 190.83,-92.89"/>
<polygon fill="black" stroke="black" points="191.74,-96.27 200.79,-90.76 190.28,-89.43 191.74,-96.27"/>
<text text-anchor="middle" x="168.4" y="-98.96" font-family="Times,serif" font-size="14.00">(1,0)</text>
</g>
<!-- 2 -->
<g id="node6" class="node">
<title>2</title>
<ellipse fill="none" stroke="black" cx="218.4" cy="-32.16" rx="18" ry="18"/>
<text text-anchor="middle" x="218.4" y="-28.46" font-family="Times,serif" font-size="14.00">2</text>
</g>
<!-- 1&#45;&gt;2 -->
<g id="edge6" class="edge">
<title>1&#45;&gt;2</title>
<path fill="none" stroke="black" d="M135.28,-79.43C148.23,-73.74 166.86,-65.12 182.4,-56.16 186.53,-53.78 190.81,-51.07 194.9,-48.35"/>
<polygon fill="black" stroke="black" points="197.16,-51.04 203.42,-42.49 193.2,-45.27 197.16,-51.04"/>
<text text-anchor="middle" x="168.4" y="-73.96" font-family="Times,serif" font-size="14.00">(1,3)</text>
</g>
<!-- 0&#45;&gt;3 -->
<g id="edge7" class="edge">
<title>0&#45;&gt;3</title>
<path fill="none" stroke="black" d="M136.3,-29.79C149.67,-28.75 168.36,-29.22 182.4,-37.16 185.33,-38.82 194.16,-51.21 202.22,-63.11"/>
<polygon fill="black" stroke="black" points="199.39,-65.17 207.86,-71.53 205.2,-61.27 199.39,-65.17"/>
<text text-anchor="middle" x="168.4" y="-40.96" font-family="Times,serif" font-size="14.00">(1,2)</text>
</g>
<!-- 0&#45;&gt;2 -->
<g id="edge8" class="edge">
<title>0&#45;&gt;2</title>
<path fill="none" stroke="black" d="M130.99,-19.03C137.24,-12.95 145.49,-6.38 154.4,-3.16 166.1,1.05 170.69,1.05 182.4,-3.16 187.96,-5.17 193.27,-8.49 198,-12.18"/>
<polygon fill="black" stroke="black" points="195.97,-15.06 205.8,-19.03 200.59,-9.8 195.97,-15.06"/>
<text text-anchor="middle" x="168.4" y="-6.96" font-family="Times,serif" font-size="14.00">(1,2)</text>
</g>
<!-- &#45;2 -->
<g id="node5" class="node">
<title>&#45;2</title>
<ellipse fill="none" stroke="black" cx="318.6" cy="-59.16" rx="18.4" ry="18.4"/>
<text text-anchor="middle" x="318.6" y="-55.46" font-family="Times,serif" font-size="14.00">&#45;2</text>
</g>
<!-- 3&#45;&gt;&#45;2 -->
<g id="edge3" class="edge">
<title>3&#45;&gt;&#45;2</title>
<path fill="none" stroke="black" d="M236.05,-81.58C251.15,-77.43 273.65,-71.25 291.19,-66.42"/>
<polygon fill="black" stroke="black" points="292.14,-69.79 300.86,-63.77 290.29,-63.04 292.14,-69.79"/>
<text text-anchor="middle" x="268.4" y="-78.96" font-family="Times,serif" font-size="14.00">(2,0)</text>
</g>
<!-- 2&#45;&gt;&#45;2 -->
<g id="edge4" class="edge">
<title>2&#45;&gt;&#45;2</title>
<path fill="none" stroke="black" d="M236.05,-36.75C251.15,-40.9 273.65,-47.08 291.19,-51.91"/>
<polygon fill="black" stroke="black" points="290.29,-55.29 300.86,-54.56 292.14,-48.54 290.29,-55.29"/>
<text text-anchor="middle" x="268.4" y="-51.96" font-family="Times,serif" font-size="14.00">(1,0)</text>
</g>
</g>
</svg>
