<?xml version="1.0" encoding="UTF-8" standalone="no"?>
<!DOCTYPE svg PUBLIC "-//W3C//DTD SVG 1.1//EN"
 "http://www.w3.org/Graphics/SVG/1.1/DTD/svg11.dtd">
<!-- Generated by graphviz version 2.42.3 (20191010.1750)
 -->
<!-- Title: dot_graph Pages: 1 -->
<svg width="126pt" height="271pt"
 viewBox="0.00 0.00 126.00 270.91" xmlns="http://www.w3.org/2000/svg" xmlns:xlink="http://www.w3.org/1999/xlink">
<g id="graph0" class="graph" transform="scale(1 1) rotate(0) translate(4 266.91)">
<title>dot_graph</title>
<polygon fill="white" stroke="transparent" points="-4,4 -4,-266.91 122,-266.91 122,4 -4,4"/>
<!-- 3 -->
<g id="node1" class="node">
<title>3</title>
<ellipse fill="none" stroke="black" cx="18" cy="-171.91" rx="18" ry="18"/>
<text text-anchor="middle" x="18" y="-168.21" font-family="Times,serif" font-size="14.00">3</text>
</g>
<!-- 7 -->
<g id="node2" class="node">
<title>7</title>
<ellipse fill="none" stroke="black" cx="100" cy="-190.91" rx="18" ry="18"/>
<text text-anchor="middle" x="100" y="-187.21" font-family="Times,serif" font-size="14.00">7</text>
</g>
<!-- 3&#45;&gt;7 -->
<g id="edge1" class="edge">
<title>3&#45;&gt;7</title>
<path fill="none" stroke="black" d="M35.58,-175.85C46.12,-178.35 60.03,-181.66 72.13,-184.53"/>
<polygon fill="black" stroke="black" points="71.63,-188.01 82.17,-186.91 73.25,-181.2 71.63,-188.01"/>
<text text-anchor="middle" x="59" y="-185.71" font-family="Times,serif" font-size="14.00">1</text>
</g>
<!-- 5 -->
<g id="node3" class="node">
<title>5</title>
<ellipse fill="none" stroke="black" cx="100" cy="-114.91" rx="18" ry="18"/>
<text text-anchor="middle" x="100" y="-111.21" font-family="Times,serif" font-size="14.00">5</text>
</g>
<!-- 3&#45;&gt;5 -->
<g id="edge2" class="edge">
<title>3&#45;&gt;5</title>
<path fill="none" stroke="black" d="M33.3,-161.72C45.25,-153.21 62.49,-140.92 76.32,-131.07"/>
<polygon fill="black" stroke="black" points="78.71,-133.67 84.82,-125.01 74.65,-127.97 78.71,-133.67"/>
<text text-anchor="middle" x="59" y="-149.71" font-family="Times,serif" font-size="14.00">1</text>
</g>
<!-- 2 -->
<g id="node4" class="node">
<title>2</title>
<ellipse fill="none" stroke="black" cx="18" cy="-19.91" rx="18" ry="18"/>
<text text-anchor="middle" x="18" y="-16.21" font-family="Times,serif" font-size="14.00">2</text>
</g>
<!-- 2&#45;&gt;5 -->
<g id="edge4" class="edge">
<title>2&#45;&gt;5</title>
<path fill="none" stroke="black" d="M35.63,-24.57C44.93,-27.88 56.18,-33.13 64,-40.91 77.06,-53.9 85.87,-72.71 91.38,-88.11"/>
<polygon fill="black" stroke="black" points="88.07,-89.25 94.54,-97.64 94.72,-87.05 88.07,-89.25"/>
<text text-anchor="middle" x="59" y="-44.71" font-family="Times,serif" font-size="14.00">1</text>
</g>
<!-- 6 -->
<g id="node5" class="node">
<title>6</title>
<ellipse fill="none" stroke="black" cx="100" cy="-30.91" rx="18" ry="18"/>
<text text-anchor="middle" x="100" y="-27.21" font-family="Times,serif" font-size="14.00">6</text>
</g>
<!-- 2&#45;&gt;6 -->
<g id="edge3" class="edge">
<title>2&#45;&gt;6</title>
<path fill="none" stroke="black" d="M32.69,-8.94C41.56,-3.2 53.39,1.91 64,-1.91 69.57,-3.92 74.88,-7.24 79.6,-10.93"/>
<polygon fill="black" stroke="black" points="77.58,-13.81 87.4,-17.77 82.19,-8.55 77.58,-13.81"/>
<text text-anchor="middle" x="59" y="-5.71" font-family="Times,serif" font-size="14.00">1</text>
</g>
<!-- 1 -->
<g id="node6" class="node">
<title>1</title>
<ellipse fill="none" stroke="black" cx="18" cy="-95.91" rx="18" ry="18"/>
<text text-anchor="middle" x="18" y="-92.21" font-family="Times,serif" font-size="14.00">1</text>
</g>
<!-- 1&#45;&gt;5 -->
<g id="edge6" class="edge">
<title>1&#45;&gt;5</title>
<path fill="none" stroke="black" d="M35.58,-99.85C46.12,-102.35 60.03,-105.66 72.13,-108.53"/>
<polygon fill="black" stroke="black" points="71.63,-112.01 82.17,-110.91 73.25,-105.2 71.63,-112.01"/>
<text text-anchor="middle" x="59" y="-109.71" font-family="Times,serif" font-size="14.00">1</text>
</g>
<!-- 1&#45;&gt;6 -->
<g id="edge5" class="edge">
<title>1&#45;&gt;6</title>
<path fill="none" stroke="black" d="M32.57,-84.89C44.94,-74.83 63.42,-59.82 77.75,-48.18"/>
<polygon fill="black" stroke="black" points="80.08,-50.8 85.63,-41.78 75.66,-45.36 80.08,-50.8"/>
<text text-anchor="middle" x="59" y="-71.71" font-family="Times,serif" font-size="14.00">1</text>
</g>
<!-- 0 -->
<g id="node7" class="node">
<title>0</title>
<ellipse fill="none" stroke="black" cx="18" cy="-244.91" rx="18" ry="18"/>
<text text-anchor="middle" x="18" y="-241.21" font-family="Times,serif" font-size="14.00">0</text>
</g>
<!-- 4 -->
<g id="node8" class="node">
<title>4</title>
<ellipse fill="none" stroke="black" cx="100" cy="-244.91" rx="18" ry="18"/>
<text text-anchor="middle" x="100" y="-241.21" font-family="Times,serif" font-size="14.00">4</text>
</g>
<!-- 0&#45;&gt;4 -->
<g id="edge7" class="edge">
<title>0&#45;&gt;4</title>
<path fill="none" stroke="black" d="M36.36,-244.91C46.7,-244.91 60.06,-244.91 71.78,-244.91"/>
<polygon fill="black" stroke="black" points="71.95,-248.41 81.95,-244.91 71.95,-241.41 71.95,-248.41"/>
<text text-anchor="middle" x="59" y="-248.71" font-family="Times,serif" font-size="14.00">1</text>
</g>
</g>
</svg>
