<?xml version="1.0" encoding="UTF-8" standalone="no"?>
<!DOCTYPE svg PUBLIC "-//W3C//DTD SVG 1.1//EN"
 "http://www.w3.org/Graphics/SVG/1.1/DTD/svg11.dtd">
<!-- Generated by graphviz version 2.42.3 (20191010.1750)
 -->
<!-- Title: dot_graph Pages: 1 -->
<svg width="123pt" height="113pt"
 viewBox="0.00 0.00 123.00 113.00" xmlns="http://www.w3.org/2000/svg" xmlns:xlink="http://www.w3.org/1999/xlink">
<g id="graph0" class="graph" transform="scale(1 1) rotate(0) translate(4 109)">
<title>dot_graph</title>
<polygon fill="white" stroke="transparent" points="-4,4 -4,-109 119,-109 119,4 -4,4"/>
<!-- 2 -->
<g id="node1" class="node">
<title>2</title>
<ellipse fill="none" stroke="black" cx="18" cy="-18" rx="18" ry="18"/>
<text text-anchor="middle" x="18" y="-14.3" font-family="Times,serif" font-size="14.00">2</text>
</g>
<!-- 3 -->
<g id="node2" class="node">
<title>3</title>
<ellipse fill="none" stroke="black" cx="97" cy="-18" rx="18" ry="18"/>
<text text-anchor="middle" x="97" y="-14.3" font-family="Times,serif" font-size="14.00">3</text>
</g>
<!-- 2&#45;&gt;3 -->
<g id="edge1" class="edge">
<title>2&#45;&gt;3</title>
<path fill="none" stroke="black" d="M36.09,-18C45.66,-18 57.82,-18 68.68,-18"/>
<polygon fill="black" stroke="black" points="68.96,-21.5 78.96,-18 68.96,-14.5 68.96,-21.5"/>
<text text-anchor="middle" x="57.5" y="-21.8" font-family="Times,serif" font-size="14.00">1</text>
</g>
<!-- 1 -->
<g id="node3" class="node">
<title>1</title>
<ellipse fill="none" stroke="black" cx="18" cy="-87" rx="18" ry="18"/>
<text text-anchor="middle" x="18" y="-83.3" font-family="Times,serif" font-size="14.00">1</text>
</g>
<!-- 0 -->
<g id="node4" class="node">
<title>0</title>
<ellipse fill="none" stroke="black" cx="97" cy="-87" rx="18" ry="18"/>
<text text-anchor="middle" x="97" y="-83.3" font-family="Times,serif" font-size="14.00">0</text>
</g>
<!-- 1&#45;&gt;0 -->
<g id="edge2" class="edge">
<title>1&#45;&gt;0</title>
<path fill="none" stroke="black" d="M36.09,-87C45.66,-87 57.82,-87 68.68,-87"/>
<polygon fill="black" stroke="black" points="68.96,-90.5 78.96,-87 68.96,-83.5 68.96,-90.5"/>
<text text-anchor="middle" x="57.5" y="-90.8" font-family="Times,serif" font-size="14.00">2</text>
</g>
<!-- 0&#45;&gt;1 -->
<g id="edge3" class="edge">
<title>0&#45;&gt;1</title>
<path fill="none" stroke="black" d="M82.82,-75.86C74.76,-70.38 64.08,-65.44 54,-68 50.04,-69.01 46.05,-70.56 42.24,-72.35"/>
<polygon fill="black" stroke="black" points="40.48,-69.33 33.31,-77.13 43.78,-75.5 40.48,-69.33"/>
<text text-anchor="middle" x="57.5" y="-71.8" font-family="Times,serif" font-size="14.00">2</text>
</g>
</g>
</svg>
