<?xml version="1.0" encoding="UTF-8" standalone="no"?>
<!DOCTYPE svg PUBLIC "-//W3C//DTD SVG 1.1//EN"
 "http://www.w3.org/Graphics/SVG/1.1/DTD/svg11.dtd">
<!-- Generated by graphviz version 2.42.3 (20191010.1750)
 -->
<!-- Title: dot_graph Pages: 1 -->
<svg width="518pt" height="144pt"
 viewBox="0.00 0.00 518.00 144.00" xmlns="http://www.w3.org/2000/svg" xmlns:xlink="http://www.w3.org/1999/xlink">
<g id="graph0" class="graph" transform="scale(1 1) rotate(0) translate(4 140)">
<title>dot_graph</title>
<polygon fill="white" stroke="transparent" points="-4,4 -4,-140 514,-140 514,4 -4,4"/>
<!-- 3 -->
<g id="node1" class="node">
<title>3</title>
<ellipse fill="none" stroke="black" cx="97" cy="-83" rx="18" ry="18"/>
<text text-anchor="middle" x="97" y="-79.3" font-family="Times,serif" font-size="14.00">3</text>
</g>
<!-- 4 -->
<g id="node2" class="node">
<title>4</title>
<ellipse fill="none" stroke="black" cx="176" cy="-83" rx="18" ry="18"/>
<text text-anchor="middle" x="176" y="-79.3" font-family="Times,serif" font-size="14.00">4</text>
</g>
<!-- 3&#45;&gt;4 -->
<g id="edge1" class="edge">
<title>3&#45;&gt;4</title>
<path fill="none" stroke="black" d="M115.09,-83C124.66,-83 136.82,-83 147.68,-83"/>
<polygon fill="black" stroke="black" points="147.96,-86.5 157.96,-83 147.96,-79.5 147.96,-86.5"/>
<text text-anchor="middle" x="136.5" y="-86.8" font-family="Times,serif" font-size="14.00">1</text>
</g>
<!-- 5 -->
<g id="node7" class="node">
<title>5</title>
<ellipse fill="none" stroke="black" cx="255" cy="-83" rx="18" ry="18"/>
<text text-anchor="middle" x="255" y="-79.3" font-family="Times,serif" font-size="14.00">5</text>
</g>
<!-- 4&#45;&gt;5 -->
<g id="edge6" class="edge">
<title>4&#45;&gt;5</title>
<path fill="none" stroke="black" d="M194.09,-83C203.66,-83 215.82,-83 226.68,-83"/>
<polygon fill="black" stroke="black" points="226.96,-86.5 236.96,-83 226.96,-79.5 226.96,-86.5"/>
<text text-anchor="middle" x="215.5" y="-86.8" font-family="Times,serif" font-size="14.00">1</text>
</g>
<!-- 7 -->
<g id="node3" class="node">
<title>7</title>
<ellipse fill="none" stroke="black" cx="413" cy="-118" rx="18" ry="18"/>
<text text-anchor="middle" x="413" y="-114.3" font-family="Times,serif" font-size="14.00">7</text>
</g>
<!-- 9 -->
<g id="node4" class="node">
<title>9</title>
<ellipse fill="none" stroke="black" cx="492" cy="-118" rx="18" ry="18"/>
<text text-anchor="middle" x="492" y="-114.3" font-family="Times,serif" font-size="14.00">9</text>
</g>
<!-- 7&#45;&gt;9 -->
<g id="edge2" class="edge">
<title>7&#45;&gt;9</title>
<path fill="none" stroke="black" d="M431.09,-118C440.66,-118 452.82,-118 463.68,-118"/>
<polygon fill="black" stroke="black" points="463.96,-121.5 473.96,-118 463.96,-114.5 463.96,-121.5"/>
<text text-anchor="middle" x="452.5" y="-121.8" font-family="Times,serif" font-size="14.00">1</text>
</g>
<!-- 6 -->
<g id="node5" class="node">
<title>6</title>
<ellipse fill="none" stroke="black" cx="334" cy="-83" rx="18" ry="18"/>
<text text-anchor="middle" x="334" y="-79.3" font-family="Times,serif" font-size="14.00">6</text>
</g>
<!-- 6&#45;&gt;7 -->
<g id="edge4" class="edge">
<title>6&#45;&gt;7</title>
<path fill="none" stroke="black" d="M350.58,-90.08C361.12,-94.87 375.27,-101.3 387.33,-106.78"/>
<polygon fill="black" stroke="black" points="385.89,-109.98 396.44,-110.93 388.79,-103.6 385.89,-109.98"/>
<text text-anchor="middle" x="373.5" y="-104.8" font-family="Times,serif" font-size="14.00">1</text>
</g>
<!-- 8 -->
<g id="node6" class="node">
<title>8</title>
<ellipse fill="none" stroke="black" cx="413" cy="-64" rx="18" ry="18"/>
<text text-anchor="middle" x="413" y="-60.3" font-family="Times,serif" font-size="14.00">8</text>
</g>
<!-- 6&#45;&gt;8 -->
<g id="edge3" class="edge">
<title>6&#45;&gt;8</title>
<path fill="none" stroke="black" d="M351.32,-78.09C357.19,-76.39 363.87,-74.53 370,-73 374.9,-71.78 380.14,-70.57 385.21,-69.46"/>
<polygon fill="black" stroke="black" points="386.13,-72.84 395.18,-67.33 384.67,-66 386.13,-72.84"/>
<text text-anchor="middle" x="373.5" y="-76.8" font-family="Times,serif" font-size="14.00">1</text>
</g>
<!-- 5&#45;&gt;6 -->
<g id="edge5" class="edge">
<title>5&#45;&gt;6</title>
<path fill="none" stroke="black" d="M273.09,-83C282.66,-83 294.82,-83 305.68,-83"/>
<polygon fill="black" stroke="black" points="305.96,-86.5 315.96,-83 305.96,-79.5 305.96,-86.5"/>
<text text-anchor="middle" x="294.5" y="-86.8" font-family="Times,serif" font-size="14.00">1</text>
</g>
<!-- 2 -->
<g id="node8" class="node">
<title>2</title>
<ellipse fill="none" stroke="black" cx="18" cy="-45" rx="18" ry="18"/>
<text text-anchor="middle" x="18" y="-41.3" font-family="Times,serif" font-size="14.00">2</text>
</g>
<!-- 2&#45;&gt;3 -->
<g id="edge8" class="edge">
<title>2&#45;&gt;3</title>
<path fill="none" stroke="black" d="M34.58,-52.69C45.12,-57.89 59.27,-64.87 71.33,-70.82"/>
<polygon fill="black" stroke="black" points="69.92,-74.03 80.44,-75.32 73.02,-67.76 69.92,-74.03"/>
<text text-anchor="middle" x="57.5" y="-68.8" font-family="Times,serif" font-size="14.00">1</text>
</g>
<!-- 0 -->
<g id="node9" class="node">
<title>0</title>
<ellipse fill="none" stroke="black" cx="97" cy="-18" rx="18" ry="18"/>
<text text-anchor="middle" x="97" y="-14.3" font-family="Times,serif" font-size="14.00">0</text>
</g>
<!-- 2&#45;&gt;0 -->
<g id="edge7" class="edge">
<title>2&#45;&gt;0</title>
<path fill="none" stroke="black" d="M35.33,-39.27C45.44,-35.73 58.64,-31.1 70.14,-27.07"/>
<polygon fill="black" stroke="black" points="71.42,-30.33 79.69,-23.72 69.1,-23.72 71.42,-30.33"/>
<text text-anchor="middle" x="57.5" y="-36.8" font-family="Times,serif" font-size="14.00">2</text>
</g>
<!-- 0&#45;&gt;2 -->
<g id="edge9" class="edge">
<title>0&#45;&gt;2</title>
<path fill="none" stroke="black" d="M79.99,-11.96C71.96,-9.85 62.21,-8.74 54,-12 47.68,-14.51 41.85,-18.76 36.82,-23.38"/>
<polygon fill="black" stroke="black" points="34.1,-21.16 29.64,-30.78 39.12,-26.04 34.1,-21.16"/>
<text text-anchor="middle" x="57.5" y="-15.8" font-family="Times,serif" font-size="14.00">2</text>
</g>
<!-- 1 -->
<g id="node10" class="node">
<title>1</title>
<ellipse fill="none" stroke="black" cx="176" cy="-18" rx="18" ry="18"/>
<text text-anchor="middle" x="176" y="-14.3" font-family="Times,serif" font-size="14.00">1</text>
</g>
<!-- 0&#45;&gt;1 -->
<g id="edge10" class="edge">
<title>0&#45;&gt;1</title>
<path fill="none" stroke="black" d="M115.09,-18C124.66,-18 136.82,-18 147.68,-18"/>
<polygon fill="black" stroke="black" points="147.96,-21.5 157.96,-18 147.96,-14.5 147.96,-21.5"/>
<text text-anchor="middle" x="136.5" y="-21.8" font-family="Times,serif" font-size="14.00">2</text>
</g>
</g>
</svg>
