<?xml version="1.0" encoding="UTF-8" standalone="no"?>
<!DOCTYPE svg PUBLIC "-//W3C//DTD SVG 1.1//EN"
 "http://www.w3.org/Graphics/SVG/1.1/DTD/svg11.dtd">
<!-- Generated by graphviz version 2.42.3 (20191010.1750)
 -->
<!-- Title: dot_graph Pages: 1 -->
<svg width="388pt" height="154pt"
 viewBox="0.00 0.00 388.00 154.00" xmlns="http://www.w3.org/2000/svg" xmlns:xlink="http://www.w3.org/1999/xlink">
<g id="graph0" class="graph" transform="scale(1 1) rotate(0) translate(4 150)">
<title>dot_graph</title>
<polygon fill="white" stroke="transparent" points="-4,4 -4,-150 384,-150 384,4 -4,4"/>
<!-- 0 -->
<g id="node1" class="node">
<title>0</title>
<ellipse fill="none" stroke="black" cx="18" cy="-77" rx="18" ry="18"/>
<text text-anchor="middle" x="18" y="-73.3" font-family="Times,serif" font-size="14.00">0</text>
</g>
<!-- 2 -->
<g id="node2" class="node">
<title>2</title>
<ellipse fill="none" stroke="black" cx="190" cy="-128" rx="18" ry="18"/>
<text text-anchor="middle" x="190" y="-124.3" font-family="Times,serif" font-size="14.00">2</text>
</g>
<!-- 0&#45;&gt;2 -->
<g id="edge1" class="edge">
<title>0&#45;&gt;2</title>
<path fill="none" stroke="black" d="M34.03,-85.94C40.11,-89.35 47.27,-93.11 54,-96 90.93,-111.88 100.59,-116.09 140,-124 146.81,-125.37 154.24,-126.27 161.21,-126.86"/>
<polygon fill="black" stroke="black" points="161.42,-130.39 171.63,-127.57 161.89,-123.4 161.42,-130.39"/>
<text text-anchor="middle" x="104" y="-123.8" font-family="Times,serif" font-size="14.00">8</text>
</g>
<!-- 3 -->
<g id="node3" class="node">
<title>3</title>
<ellipse fill="none" stroke="black" cx="104" cy="-77" rx="18" ry="18"/>
<text text-anchor="middle" x="104" y="-73.3" font-family="Times,serif" font-size="14.00">3</text>
</g>
<!-- 0&#45;&gt;3 -->
<g id="edge2" class="edge">
<title>0&#45;&gt;3</title>
<path fill="none" stroke="black" d="M36.4,-77C47.74,-77 62.77,-77 75.68,-77"/>
<polygon fill="black" stroke="black" points="75.9,-80.5 85.9,-77 75.9,-73.5 75.9,-80.5"/>
<text text-anchor="middle" x="61" y="-80.8" font-family="Times,serif" font-size="14.00">10</text>
</g>
<!-- 1 -->
<g id="node4" class="node">
<title>1</title>
<ellipse fill="none" stroke="black" cx="190" cy="-18" rx="18" ry="18"/>
<text text-anchor="middle" x="190" y="-14.3" font-family="Times,serif" font-size="14.00">1</text>
</g>
<!-- 0&#45;&gt;1 -->
<g id="edge3" class="edge">
<title>0&#45;&gt;1</title>
<path fill="none" stroke="black" d="M32.51,-66.25C45.47,-56.52 65.97,-42.58 86,-35 110.54,-25.71 140.26,-21.49 161.46,-19.58"/>
<polygon fill="black" stroke="black" points="162,-23.05 171.69,-18.77 161.45,-16.07 162,-23.05"/>
<text text-anchor="middle" x="104" y="-38.8" font-family="Times,serif" font-size="14.00">7</text>
</g>
<!-- 4 -->
<g id="node5" class="node">
<title>4</title>
<ellipse fill="none" stroke="black" cx="276" cy="-71" rx="18" ry="18"/>
<text text-anchor="middle" x="276" y="-67.3" font-family="Times,serif" font-size="14.00">4</text>
</g>
<!-- 2&#45;&gt;4 -->
<g id="edge4" class="edge">
<title>2&#45;&gt;4</title>
<path fill="none" stroke="black" d="M205.25,-118.33C218.04,-109.65 237.05,-96.75 251.99,-86.61"/>
<polygon fill="black" stroke="black" points="254.37,-89.23 260.68,-80.72 250.44,-83.44 254.37,-89.23"/>
<text text-anchor="middle" x="233" y="-105.8" font-family="Times,serif" font-size="14.00">12</text>
</g>
<!-- 3&#45;&gt;2 -->
<g id="edge6" class="edge">
<title>3&#45;&gt;2</title>
<path fill="none" stroke="black" d="M120.02,-86.12C132.56,-93.73 150.67,-104.73 165.19,-113.54"/>
<polygon fill="black" stroke="black" points="163.75,-116.76 174.11,-118.96 167.38,-110.78 163.75,-116.76"/>
<text text-anchor="middle" x="147" y="-108.8" font-family="Times,serif" font-size="14.00">2</text>
</g>
<!-- 3&#45;&gt;1 -->
<g id="edge7" class="edge">
<title>3&#45;&gt;1</title>
<path fill="none" stroke="black" d="M117.94,-65.53C124.4,-60 132.42,-53.42 140,-48 148.02,-42.27 157.15,-36.49 165.33,-31.56"/>
<polygon fill="black" stroke="black" points="167.24,-34.5 174.07,-26.4 163.68,-28.47 167.24,-34.5"/>
<text text-anchor="middle" x="147" y="-51.8" font-family="Times,serif" font-size="14.00">11</text>
</g>
<!-- 3&#45;&gt;4 -->
<g id="edge5" class="edge">
<title>3&#45;&gt;4</title>
<path fill="none" stroke="black" d="M122.24,-76.39C151.84,-75.35 212.57,-73.2 247.89,-71.96"/>
<polygon fill="black" stroke="black" points="248.1,-75.45 257.97,-71.6 247.85,-68.46 248.1,-75.45"/>
<text text-anchor="middle" x="190" y="-77.8" font-family="Times,serif" font-size="14.00">5</text>
</g>
<!-- 1&#45;&gt;4 -->
<g id="edge8" class="edge">
<title>1&#45;&gt;4</title>
<path fill="none" stroke="black" d="M206.09,-27.07C215.82,-32.96 228.71,-40.84 240,-48 243.9,-50.48 248.03,-53.14 252.02,-55.75"/>
<polygon fill="black" stroke="black" points="250.14,-58.7 260.42,-61.27 253.99,-52.85 250.14,-58.7"/>
<text text-anchor="middle" x="233" y="-51.8" font-family="Times,serif" font-size="14.00">1</text>
</g>
<!-- 5 -->
<g id="node6" class="node">
<title>5</title>
<ellipse fill="none" stroke="black" cx="362" cy="-30" rx="18" ry="18"/>
<text text-anchor="middle" x="362" y="-26.3" font-family="Times,serif" font-size="14.00">5</text>
</g>
<!-- 1&#45;&gt;5 -->
<g id="edge9" class="edge">
<title>1&#45;&gt;5</title>
<path fill="none" stroke="black" d="M208.24,-19.22C237.84,-21.31 298.57,-25.59 333.89,-28.09"/>
<polygon fill="black" stroke="black" points="333.75,-31.59 343.97,-28.8 334.24,-24.6 333.75,-31.59"/>
<text text-anchor="middle" x="276" y="-29.8" font-family="Times,serif" font-size="14.00">21</text>
</g>
<!-- 4&#45;&gt;5 -->
<g id="edge10" class="edge">
<title>4&#45;&gt;5</title>
<path fill="none" stroke="black" d="M292.41,-63.48C304.64,-57.51 322,-49.04 336.19,-42.11"/>
<polygon fill="black" stroke="black" points="337.95,-45.14 345.41,-37.61 334.88,-38.85 337.95,-45.14"/>
<text text-anchor="middle" x="319" y="-55.8" font-family="Times,serif" font-size="14.00">14</text>
</g>
</g>
</svg>
