<?xml version="1.0" encoding="UTF-8" standalone="no"?>
<!DOCTYPE svg PUBLIC "-//W3C//DTD SVG 1.1//EN"
 "http://www.w3.org/Graphics/SVG/1.1/DTD/svg11.dtd">
<!-- Generated by graphviz version 2.43.0 (0)
 -->
<!-- Title: dot_graph Pages: 1 -->
<svg width="123pt" height="206pt"
 viewBox="0.00 0.00 123.00 206.00" xmlns="http://www.w3.org/2000/svg" xmlns:xlink="http://www.w3.org/1999/xlink">
<g id="graph0" class="graph" transform="scale(1 1) rotate(0) translate(4 202)">
<title>dot_graph</title>
<polygon fill="white" stroke="transparent" points="-4,4 -4,-202 119,-202 119,4 -4,4"/>
<!-- 8 -->
<g id="node1" class="node">
<title>8</title>
<ellipse fill="none" stroke="black" cx="18" cy="-18" rx="18" ry="18"/>
<text text-anchor="middle" x="18" y="-14.3" font-family="Times,serif" font-size="14.00">8</text>
</g>
<!-- 4 -->
<g id="node2" class="node">
<title>4</title>
<ellipse fill="none" stroke="black" cx="97" cy="-18" rx="18" ry="18"/>
<text text-anchor="middle" x="97" y="-14.3" font-family="Times,serif" font-size="14.00">4</text>
</g>
<!-- 8&#45;&gt;4 -->
<g id="edge1" class="edge">
<title>8&#45;&gt;4</title>
<path fill="none" stroke="black" d="M36.09,-18C45.66,-18 57.82,-18 68.68,-18"/>
<polygon fill="black" stroke="black" points="68.96,-21.5 78.96,-18 68.96,-14.5 68.96,-21.5"/>
<text text-anchor="middle" x="57.5" y="-21.8" font-family="Times,serif" font-size="14.00">1</text>
</g>
<!-- 5 -->
<g id="node3" class="node">
<title>5</title>
<ellipse fill="none" stroke="black" cx="18" cy="-72" rx="18" ry="18"/>
<text text-anchor="middle" x="18" y="-68.3" font-family="Times,serif" font-size="14.00">5</text>
</g>
<!-- 0 -->
<g id="node4" class="node">
<title>0</title>
<ellipse fill="none" stroke="black" cx="97" cy="-72" rx="18" ry="18"/>
<text text-anchor="middle" x="97" y="-68.3" font-family="Times,serif" font-size="14.00">0</text>
</g>
<!-- 5&#45;&gt;0 -->
<g id="edge2" class="edge">
<title>5&#45;&gt;0</title>
<path fill="none" stroke="black" d="M36.09,-72C45.66,-72 57.82,-72 68.68,-72"/>
<polygon fill="black" stroke="black" points="68.96,-75.5 78.96,-72 68.96,-68.5 68.96,-75.5"/>
<text text-anchor="middle" x="57.5" y="-75.8" font-family="Times,serif" font-size="14.00">1</text>
</g>
<!-- 7 -->
<g id="node5" class="node">
<title>7</title>
<ellipse fill="none" stroke="black" cx="18" cy="-126" rx="18" ry="18"/>
<text text-anchor="middle" x="18" y="-122.3" font-family="Times,serif" font-size="14.00">7</text>
</g>
<!-- 2 -->
<g id="node6" class="node">
<title>2</title>
<ellipse fill="none" stroke="black" cx="97" cy="-126" rx="18" ry="18"/>
<text text-anchor="middle" x="97" y="-122.3" font-family="Times,serif" font-size="14.00">2</text>
</g>
<!-- 7&#45;&gt;2 -->
<g id="edge3" class="edge">
<title>7&#45;&gt;2</title>
<path fill="none" stroke="black" d="M36.09,-126C45.66,-126 57.82,-126 68.68,-126"/>
<polygon fill="black" stroke="black" points="68.96,-129.5 78.96,-126 68.96,-122.5 68.96,-129.5"/>
<text text-anchor="middle" x="57.5" y="-129.8" font-family="Times,serif" font-size="14.00">1</text>
</g>
<!-- 6 -->
<g id="node7" class="node">
<title>6</title>
<ellipse fill="none" stroke="black" cx="18" cy="-180" rx="18" ry="18"/>
<text text-anchor="middle" x="18" y="-176.3" font-family="Times,serif" font-size="14.00">6</text>
</g>
<!-- 1 -->
<g id="node8" class="node">
<title>1</title>
<ellipse fill="none" stroke="black" cx="97" cy="-180" rx="18" ry="18"/>
<text text-anchor="middle" x="97" y="-176.3" font-family="Times,serif" font-size="14.00">1</text>
</g>
<!-- 6&#45;&gt;1 -->
<g id="edge4" class="edge">
<title>6&#45;&gt;1</title>
<path fill="none" stroke="black" d="M36.09,-180C45.66,-180 57.82,-180 68.68,-180"/>
<polygon fill="black" stroke="black" points="68.96,-183.5 78.96,-180 68.96,-176.5 68.96,-183.5"/>
<text text-anchor="middle" x="57.5" y="-183.8" font-family="Times,serif" font-size="14.00">1</text>
</g>
</g>
</svg>
