<?xml version="1.0" encoding="UTF-8" standalone="no"?>
<!DOCTYPE svg PUBLIC "-//W3C//DTD SVG 1.1//EN"
 "http://www.w3.org/Graphics/SVG/1.1/DTD/svg11.dtd">
<!-- Generated by graphviz version 2.42.3 (20191010.1750)
 -->
<!-- Title: dot_graph Pages: 1 -->
<svg width="126pt" height="206pt"
 viewBox="0.00 0.00 126.00 206.00" xmlns="http://www.w3.org/2000/svg" xmlns:xlink="http://www.w3.org/1999/xlink">
<g id="graph0" class="graph" transform="scale(1 1) rotate(0) translate(4 202)">
<title>dot_graph</title>
<polygon fill="white" stroke="transparent" points="-4,4 -4,-202 122,-202 122,4 -4,4"/>
<!-- 8 -->
<g id="node1" class="node">
<title>8</title>
<ellipse fill="none" stroke="black" cx="18" cy="-18" rx="18" ry="18"/>
<text text-anchor="middle" x="18" y="-14.3" font-family="Times,serif" font-size="14.00">8</text>
</g>
<!-- 4 -->
<g id="node2" class="node">
<title>4</title>
<ellipse fill="none" stroke="black" cx="100" cy="-18" rx="18" ry="18"/>
<text text-anchor="middle" x="100" y="-14.3" font-family="Times,serif" font-size="14.00">4</text>
</g>
<!-- 8&#45;&gt;4 -->
<g id="edge1" class="edge">
<title>8&#45;&gt;4</title>
<path fill="none" stroke="black" d="M36.36,-18C46.7,-18 60.06,-18 71.78,-18"/>
<polygon fill="black" stroke="black" points="71.95,-21.5 81.95,-18 71.95,-14.5 71.95,-21.5"/>
<text text-anchor="middle" x="59" y="-21.8" font-family="Times,serif" font-size="14.00">1</text>
</g>
<!-- 5 -->
<g id="node3" class="node">
<title>5</title>
<ellipse fill="none" stroke="black" cx="18" cy="-72" rx="18" ry="18"/>
<text text-anchor="middle" x="18" y="-68.3" font-family="Times,serif" font-size="14.00">5</text>
</g>
<!-- 0 -->
<g id="node4" class="node">
<title>0</title>
<ellipse fill="none" stroke="black" cx="100" cy="-72" rx="18" ry="18"/>
<text text-anchor="middle" x="100" y="-68.3" font-family="Times,serif" font-size="14.00">0</text>
</g>
<!-- 5&#45;&gt;0 -->
<g id="edge2" class="edge">
<title>5&#45;&gt;0</title>
<path fill="none" stroke="black" d="M36.36,-72C46.7,-72 60.06,-72 71.78,-72"/>
<polygon fill="black" stroke="black" points="71.95,-75.5 81.95,-72 71.95,-68.5 71.95,-75.5"/>
<text text-anchor="middle" x="59" y="-75.8" font-family="Times,serif" font-size="14.00">1</text>
</g>
<!-- 7 -->
<g id="node5" class="node">
<title>7</title>
<ellipse fill="none" stroke="black" cx="18" cy="-126" rx="18" ry="18"/>
<text text-anchor="middle" x="18" y="-122.3" font-family="Times,serif" font-size="14.00">7</text>
</g>
<!-- 2 -->
<g id="node6" class="node">
<title>2</title>
<ellipse fill="none" stroke="black" cx="100" cy="-126" rx="18" ry="18"/>
<text text-anchor="middle" x="100" y="-122.3" font-family="Times,serif" font-size="14.00">2</text>
</g>
<!-- 7&#45;&gt;2 -->
<g id="edge3" class="edge">
<title>7&#45;&gt;2</title>
<path fill="none" stroke="black" d="M36.36,-126C46.7,-126 60.06,-126 71.78,-126"/>
<polygon fill="black" stroke="black" points="71.95,-129.5 81.95,-126 71.95,-122.5 71.95,-129.5"/>
<text text-anchor="middle" x="59" y="-129.8" font-family="Times,serif" font-size="14.00">1</text>
</g>
<!-- 6 -->
<g id="node7" class="node">
<title>6</title>
<ellipse fill="none" stroke="black" cx="18" cy="-180" rx="18" ry="18"/>
<text text-anchor="middle" x="18" y="-176.3" font-family="Times,serif" font-size="14.00">6</text>
</g>
<!-- 1 -->
<g id="node8" class="node">
<title>1</title>
<ellipse fill="none" stroke="black" cx="100" cy="-180" rx="18" ry="18"/>
<text text-anchor="middle" x="100" y="-176.3" font-family="Times,serif" font-size="14.00">1</text>
</g>
<!-- 6&#45;&gt;1 -->
<g id="edge4" class="edge">
<title>6&#45;&gt;1</title>
<path fill="none" stroke="black" d="M36.36,-180C46.7,-180 60.06,-180 71.78,-180"/>
<polygon fill="black" stroke="black" points="71.95,-183.5 81.95,-180 71.95,-176.5 71.95,-183.5"/>
<text text-anchor="middle" x="59" y="-183.8" font-family="Times,serif" font-size="14.00">1</text>
</g>
</g>
</svg>
