<?xml version="1.0" encoding="UTF-8" standalone="no"?>
<!DOCTYPE svg PUBLIC "-//W3C//DTD SVG 1.1//EN"
 "http://www.w3.org/Graphics/SVG/1.1/DTD/svg11.dtd">
<!-- Generated by graphviz version 2.42.3 (20191010.1750)
 -->
<!-- Title: dot_graph Pages: 1 -->
<svg width="518pt" height="212pt"
 viewBox="0.00 0.00 518.00 212.00" xmlns="http://www.w3.org/2000/svg" xmlns:xlink="http://www.w3.org/1999/xlink">
<g id="graph0" class="graph" transform="scale(1 1) rotate(0) translate(4 208)">
<title>dot_graph</title>
<polygon fill="white" stroke="transparent" points="-4,4 -4,-208 514,-208 514,4 -4,4"/>
<!-- 0 -->
<g id="node1" class="node">
<title>0</title>
<ellipse fill="none" stroke="black" cx="413" cy="-148" rx="18" ry="18"/>
<text text-anchor="middle" x="413" y="-144.3" font-family="Times,serif" font-size="14.00">0</text>
</g>
<!-- 1 -->
<g id="node2" class="node">
<title>1</title>
<ellipse fill="none" stroke="black" cx="492" cy="-186" rx="18" ry="18"/>
<text text-anchor="middle" x="492" y="-182.3" font-family="Times,serif" font-size="14.00">1</text>
</g>
<!-- 0&#45;&gt;1 -->
<g id="edge1" class="edge">
<title>0&#45;&gt;1</title>
<path fill="none" stroke="black" d="M429.58,-155.69C440.12,-160.89 454.27,-167.87 466.33,-173.82"/>
<polygon fill="black" stroke="black" points="464.92,-177.03 475.44,-178.32 468.02,-170.76 464.92,-177.03"/>
<text text-anchor="middle" x="452.5" y="-171.8" font-family="Times,serif" font-size="14.00">1</text>
</g>
<!-- 2 -->
<g id="node3" class="node">
<title>2</title>
<ellipse fill="none" stroke="black" cx="492" cy="-110" rx="18" ry="18"/>
<text text-anchor="middle" x="492" y="-106.3" font-family="Times,serif" font-size="14.00">2</text>
</g>
<!-- 0&#45;&gt;2 -->
<g id="edge2" class="edge">
<title>0&#45;&gt;2</title>
<path fill="none" stroke="black" d="M429.58,-140.31C440.12,-135.11 454.27,-128.13 466.33,-122.18"/>
<polygon fill="black" stroke="black" points="468.02,-125.24 475.44,-117.68 464.92,-118.97 468.02,-125.24"/>
<text text-anchor="middle" x="452.5" y="-133.8" font-family="Times,serif" font-size="14.00">1</text>
</g>
<!-- 2&#45;&gt;0 -->
<g id="edge3" class="edge">
<title>2&#45;&gt;0</title>
<path fill="none" stroke="black" d="M474.38,-105.78C466.38,-104.59 456.84,-104.44 449,-108 441.2,-111.54 434.46,-117.77 429.03,-124.27"/>
<polygon fill="black" stroke="black" points="426.07,-122.38 422.87,-132.48 431.67,-126.58 426.07,-122.38"/>
<text text-anchor="middle" x="452.5" y="-111.8" font-family="Times,serif" font-size="14.00">3</text>
</g>
<!-- 3 -->
<g id="node4" class="node">
<title>3</title>
<ellipse fill="none" stroke="black" cx="413" cy="-72" rx="18" ry="18"/>
<text text-anchor="middle" x="413" y="-68.3" font-family="Times,serif" font-size="14.00">3</text>
</g>
<!-- 3&#45;&gt;2 -->
<g id="edge4" class="edge">
<title>3&#45;&gt;2</title>
<path fill="none" stroke="black" d="M430.78,-76.42C438.64,-78.78 448.02,-82.03 456,-86 460.27,-88.12 464.62,-90.71 468.74,-93.39"/>
<polygon fill="black" stroke="black" points="467.03,-96.46 477.25,-99.25 471,-90.69 467.03,-96.46"/>
<text text-anchor="middle" x="452.5" y="-89.8" font-family="Times,serif" font-size="14.00">1</text>
</g>
<!-- 4 -->
<g id="node5" class="node">
<title>4</title>
<ellipse fill="none" stroke="black" cx="334" cy="-72" rx="18" ry="18"/>
<text text-anchor="middle" x="334" y="-68.3" font-family="Times,serif" font-size="14.00">4</text>
</g>
<!-- 4&#45;&gt;3 -->
<g id="edge5" class="edge">
<title>4&#45;&gt;3</title>
<path fill="none" stroke="black" d="M352.09,-72C361.66,-72 373.82,-72 384.68,-72"/>
<polygon fill="black" stroke="black" points="384.96,-75.5 394.96,-72 384.96,-68.5 384.96,-75.5"/>
<text text-anchor="middle" x="373.5" y="-75.8" font-family="Times,serif" font-size="14.00">1</text>
</g>
<!-- 5 -->
<g id="node6" class="node">
<title>5</title>
<ellipse fill="none" stroke="black" cx="255" cy="-72" rx="18" ry="18"/>
<text text-anchor="middle" x="255" y="-68.3" font-family="Times,serif" font-size="14.00">5</text>
</g>
<!-- 5&#45;&gt;4 -->
<g id="edge6" class="edge">
<title>5&#45;&gt;4</title>
<path fill="none" stroke="black" d="M273.09,-72C282.66,-72 294.82,-72 305.68,-72"/>
<polygon fill="black" stroke="black" points="305.96,-75.5 315.96,-72 305.96,-68.5 305.96,-75.5"/>
<text text-anchor="middle" x="294.5" y="-75.8" font-family="Times,serif" font-size="14.00">1</text>
</g>
<!-- 6 -->
<g id="node7" class="node">
<title>6</title>
<ellipse fill="none" stroke="black" cx="176" cy="-37" rx="18" ry="18"/>
<text text-anchor="middle" x="176" y="-33.3" font-family="Times,serif" font-size="14.00">6</text>
</g>
<!-- 6&#45;&gt;5 -->
<g id="edge8" class="edge">
<title>6&#45;&gt;5</title>
<path fill="none" stroke="black" d="M192.58,-44.08C203.12,-48.87 217.27,-55.3 229.33,-60.78"/>
<polygon fill="black" stroke="black" points="227.89,-63.98 238.44,-64.93 230.79,-57.6 227.89,-63.98"/>
<text text-anchor="middle" x="215.5" y="-59.8" font-family="Times,serif" font-size="14.00">1</text>
</g>
<!-- 8 -->
<g id="node8" class="node">
<title>8</title>
<ellipse fill="none" stroke="black" cx="255" cy="-18" rx="18" ry="18"/>
<text text-anchor="middle" x="255" y="-14.3" font-family="Times,serif" font-size="14.00">8</text>
</g>
<!-- 6&#45;&gt;8 -->
<g id="edge7" class="edge">
<title>6&#45;&gt;8</title>
<path fill="none" stroke="black" d="M193.32,-32.09C199.19,-30.39 205.87,-28.53 212,-27 216.9,-25.78 222.14,-24.57 227.21,-23.46"/>
<polygon fill="black" stroke="black" points="228.13,-26.84 237.18,-21.33 226.67,-20 228.13,-26.84"/>
<text text-anchor="middle" x="215.5" y="-30.8" font-family="Times,serif" font-size="14.00">1</text>
</g>
<!-- 7 -->
<g id="node9" class="node">
<title>7</title>
<ellipse fill="none" stroke="black" cx="97" cy="-37" rx="18" ry="18"/>
<text text-anchor="middle" x="97" y="-33.3" font-family="Times,serif" font-size="14.00">7</text>
</g>
<!-- 7&#45;&gt;6 -->
<g id="edge9" class="edge">
<title>7&#45;&gt;6</title>
<path fill="none" stroke="black" d="M115.09,-37C124.66,-37 136.82,-37 147.68,-37"/>
<polygon fill="black" stroke="black" points="147.96,-40.5 157.96,-37 147.96,-33.5 147.96,-40.5"/>
<text text-anchor="middle" x="136.5" y="-40.8" font-family="Times,serif" font-size="14.00">1</text>
</g>
<!-- 9 -->
<g id="node10" class="node">
<title>9</title>
<ellipse fill="none" stroke="black" cx="18" cy="-37" rx="18" ry="18"/>
<text text-anchor="middle" x="18" y="-33.3" font-family="Times,serif" font-size="14.00">9</text>
</g>
<!-- 9&#45;&gt;7 -->
<g id="edge10" class="edge">
<title>9&#45;&gt;7</title>
<path fill="none" stroke="black" d="M36.09,-37C45.66,-37 57.82,-37 68.68,-37"/>
<polygon fill="black" stroke="black" points="68.96,-40.5 78.96,-37 68.96,-33.5 68.96,-40.5"/>
<text text-anchor="middle" x="57.5" y="-40.8" font-family="Times,serif" font-size="14.00">1</text>
</g>
</g>
</svg>
