<?xml version="1.0" encoding="UTF-8" standalone="no"?>
<!DOCTYPE svg PUBLIC "-//W3C//DTD SVG 1.1//EN"
 "http://www.w3.org/Graphics/SVG/1.1/DTD/svg11.dtd">
<!-- Generated by graphviz version 2.43.0 (0)
 -->
<!-- Title: dot_graph Pages: 1 -->
<svg width="282pt" height="275pt"
 viewBox="0.00 0.00 281.79 275.00" xmlns="http://www.w3.org/2000/svg" xmlns:xlink="http://www.w3.org/1999/xlink">
<g id="graph0" class="graph" transform="scale(1 1) rotate(0) translate(4 271)">
<title>dot_graph</title>
<polygon fill="white" stroke="transparent" points="-4,4 -4,-271 277.79,-271 277.79,4 -4,4"/>
<!-- 0 -->
<g id="node1" class="node">
<title>0</title>
<ellipse fill="none" stroke="black" cx="97.4" cy="-249" rx="18" ry="18"/>
<text text-anchor="middle" x="97.4" y="-245.3" font-family="Times,serif" font-size="14.00">0</text>
</g>
<!-- 5 -->
<g id="node2" class="node">
<title>5</title>
<ellipse fill="none" stroke="black" cx="176.4" cy="-238" rx="18" ry="18"/>
<text text-anchor="middle" x="176.4" y="-234.3" font-family="Times,serif" font-size="14.00">5</text>
</g>
<!-- 0&#45;&gt;5 -->
<g id="edge1" class="edge">
<title>0&#45;&gt;5</title>
<path fill="none" stroke="black" d="M115.49,-246.56C125.16,-245.18 137.47,-243.42 148.41,-241.85"/>
<polygon fill="black" stroke="black" points="148.95,-245.31 158.36,-240.43 147.96,-238.38 148.95,-245.31"/>
<text text-anchor="middle" x="136.9" y="-246.8" font-family="Times,serif" font-size="14.00">1</text>
</g>
<!-- &#45;2 -->
<g id="node9" class="node">
<title>&#45;2</title>
<ellipse fill="none" stroke="black" cx="255.6" cy="-137" rx="18.4" ry="18.4"/>
<text text-anchor="middle" x="255.6" y="-133.3" font-family="Times,serif" font-size="14.00">&#45;2</text>
</g>
<!-- 5&#45;&gt;&#45;2 -->
<g id="edge8" class="edge">
<title>5&#45;&gt;&#45;2</title>
<path fill="none" stroke="black" d="M188.13,-223.96C200.91,-207.24 222.4,-179.12 237.48,-159.39"/>
<polygon fill="black" stroke="black" points="240.41,-161.32 243.7,-151.25 234.85,-157.07 240.41,-161.32"/>
<text text-anchor="middle" x="215.9" y="-193.8" font-family="Times,serif" font-size="14.00">1</text>
</g>
<!-- 1 -->
<g id="node3" class="node">
<title>1</title>
<ellipse fill="none" stroke="black" cx="97.4" cy="-184" rx="18" ry="18"/>
<text text-anchor="middle" x="97.4" y="-180.3" font-family="Times,serif" font-size="14.00">1</text>
</g>
<!-- 6 -->
<g id="node4" class="node">
<title>6</title>
<ellipse fill="none" stroke="black" cx="176.4" cy="-108" rx="18" ry="18"/>
<text text-anchor="middle" x="176.4" y="-104.3" font-family="Times,serif" font-size="14.00">6</text>
</g>
<!-- 1&#45;&gt;6 -->
<g id="edge2" class="edge">
<title>1&#45;&gt;6</title>
<path fill="none" stroke="black" d="M114.36,-177.97C122.76,-174.25 132.85,-168.88 140.4,-162 141.79,-160.73 151.5,-145.7 160.33,-131.83"/>
<polygon fill="black" stroke="black" points="163.51,-133.35 165.92,-123.03 157.6,-129.6 163.51,-133.35"/>
<text text-anchor="middle" x="136.9" y="-169.8" font-family="Times,serif" font-size="14.00">1</text>
</g>
<!-- 7 -->
<g id="node5" class="node">
<title>7</title>
<ellipse fill="none" stroke="black" cx="176.4" cy="-162" rx="18" ry="18"/>
<text text-anchor="middle" x="176.4" y="-158.3" font-family="Times,serif" font-size="14.00">7</text>
</g>
<!-- 1&#45;&gt;7 -->
<g id="edge3" class="edge">
<title>1&#45;&gt;7</title>
<path fill="none" stroke="black" d="M112.15,-194.77C120.42,-199.88 131.11,-204.07 140.4,-200 147.74,-196.78 154.22,-191.18 159.55,-185.25"/>
<polygon fill="black" stroke="black" points="162.52,-187.14 166.07,-177.15 157.07,-182.74 162.52,-187.14"/>
<text text-anchor="middle" x="136.9" y="-204.8" font-family="Times,serif" font-size="14.00">1</text>
</g>
<!-- 6&#45;&gt;&#45;2 -->
<g id="edge9" class="edge">
<title>6&#45;&gt;&#45;2</title>
<path fill="none" stroke="black" d="M193.39,-114.01C203.57,-117.83 216.99,-122.87 228.67,-127.26"/>
<polygon fill="black" stroke="black" points="227.76,-130.66 238.35,-130.9 230.22,-124.11 227.76,-130.66"/>
<text text-anchor="middle" x="215.9" y="-126.8" font-family="Times,serif" font-size="14.00">1</text>
</g>
<!-- 7&#45;&gt;&#45;2 -->
<g id="edge10" class="edge">
<title>7&#45;&gt;&#45;2</title>
<path fill="none" stroke="black" d="M193.77,-156.7C203.83,-153.44 216.96,-149.19 228.43,-145.47"/>
<polygon fill="black" stroke="black" points="229.55,-148.79 237.98,-142.38 227.39,-142.13 229.55,-148.79"/>
<text text-anchor="middle" x="215.9" y="-153.8" font-family="Times,serif" font-size="14.00">1</text>
</g>
<!-- 2 -->
<g id="node6" class="node">
<title>2</title>
<ellipse fill="none" stroke="black" cx="97.4" cy="-129" rx="18" ry="18"/>
<text text-anchor="middle" x="97.4" y="-125.3" font-family="Times,serif" font-size="14.00">2</text>
</g>
<!-- 2&#45;&gt;6 -->
<g id="edge4" class="edge">
<title>2&#45;&gt;6</title>
<path fill="none" stroke="black" d="M112.33,-118.92C118.48,-115.05 125.98,-111.06 133.4,-109 138.03,-107.71 143.06,-107.02 147.97,-106.7"/>
<polygon fill="black" stroke="black" points="148.42,-110.2 158.36,-106.52 148.3,-103.2 148.42,-110.2"/>
<text text-anchor="middle" x="136.9" y="-112.8" font-family="Times,serif" font-size="14.00">1</text>
</g>
<!-- 2&#45;&gt;7 -->
<g id="edge5" class="edge">
<title>2&#45;&gt;7</title>
<path fill="none" stroke="black" d="M114.35,-135.84C124.68,-140.26 138.34,-146.12 150.12,-151.17"/>
<polygon fill="black" stroke="black" points="148.89,-154.45 159.46,-155.17 151.65,-148.01 148.89,-154.45"/>
<text text-anchor="middle" x="136.9" y="-149.8" font-family="Times,serif" font-size="14.00">1</text>
</g>
<!-- 4 -->
<g id="node7" class="node">
<title>4</title>
<ellipse fill="none" stroke="black" cx="97.4" cy="-72" rx="18" ry="18"/>
<text text-anchor="middle" x="97.4" y="-68.3" font-family="Times,serif" font-size="14.00">4</text>
</g>
<!-- 4&#45;&gt;6 -->
<g id="edge6" class="edge">
<title>4&#45;&gt;6</title>
<path fill="none" stroke="black" d="M114.6,-77.51C122.5,-80.36 132.07,-84.07 140.4,-88 144.13,-89.77 148.01,-91.78 151.76,-93.84"/>
<polygon fill="black" stroke="black" points="150.26,-97.01 160.68,-98.91 153.72,-90.93 150.26,-97.01"/>
<text text-anchor="middle" x="136.9" y="-91.8" font-family="Times,serif" font-size="14.00">1</text>
</g>
<!-- 8 -->
<g id="node8" class="node">
<title>8</title>
<ellipse fill="none" stroke="black" cx="176.4" cy="-43" rx="18" ry="18"/>
<text text-anchor="middle" x="176.4" y="-39.3" font-family="Times,serif" font-size="14.00">8</text>
</g>
<!-- 4&#45;&gt;8 -->
<g id="edge7" class="edge">
<title>4&#45;&gt;8</title>
<path fill="none" stroke="black" d="M107.36,-56.86C113.47,-48.11 122.43,-37.89 133.4,-33 138.7,-30.63 144.64,-30.62 150.35,-31.74"/>
<polygon fill="black" stroke="black" points="149.6,-35.17 160.18,-34.74 151.64,-28.48 149.6,-35.17"/>
<text text-anchor="middle" x="136.9" y="-36.8" font-family="Times,serif" font-size="14.00">1</text>
</g>
<!-- 8&#45;&gt;&#45;2 -->
<g id="edge11" class="edge">
<title>8&#45;&gt;&#45;2</title>
<path fill="none" stroke="black" d="M188.46,-56.47C201.11,-71.88 222,-97.32 236.92,-115.48"/>
<polygon fill="black" stroke="black" points="234.25,-117.74 243.3,-123.25 239.66,-113.3 234.25,-117.74"/>
<text text-anchor="middle" x="215.9" y="-95.8" font-family="Times,serif" font-size="14.00">1</text>
</g>
<!-- &#45;1 -->
<g id="node10" class="node">
<title>&#45;1</title>
<ellipse fill="none" stroke="black" cx="18.2" cy="-129" rx="18.4" ry="18.4"/>
<text text-anchor="middle" x="18.2" y="-125.3" font-family="Times,serif" font-size="14.00">&#45;1</text>
</g>
<!-- &#45;1&#45;&gt;0 -->
<g id="edge12" class="edge">
<title>&#45;1&#45;&gt;0</title>
<path fill="none" stroke="black" d="M28.98,-144.2C42.21,-164.78 65.96,-201.69 81.45,-225.77"/>
<polygon fill="black" stroke="black" points="78.59,-227.78 86.94,-234.3 84.47,-224 78.59,-227.78"/>
<text text-anchor="middle" x="57.9" y="-195.8" font-family="Times,serif" font-size="14.00">1</text>
</g>
<!-- &#45;1&#45;&gt;1 -->
<g id="edge13" class="edge">
<title>&#45;1&#45;&gt;1</title>
<path fill="none" stroke="black" d="M33.36,-139.09C44.68,-147.15 60.75,-158.61 73.84,-167.93"/>
<polygon fill="black" stroke="black" points="72.15,-171.02 82.33,-173.98 76.21,-165.32 72.15,-171.02"/>
<text text-anchor="middle" x="57.9" y="-161.8" font-family="Times,serif" font-size="14.00">1</text>
</g>
<!-- &#45;1&#45;&gt;2 -->
<g id="edge14" class="edge">
<title>&#45;1&#45;&gt;2</title>
<path fill="none" stroke="black" d="M36.72,-129C46.26,-129 58.28,-129 69.03,-129"/>
<polygon fill="black" stroke="black" points="69.21,-132.5 79.21,-129 69.21,-125.5 69.21,-132.5"/>
<text text-anchor="middle" x="57.9" y="-132.8" font-family="Times,serif" font-size="14.00">1</text>
</g>
<!-- &#45;1&#45;&gt;4 -->
<g id="edge16" class="edge">
<title>&#45;1&#45;&gt;4</title>
<path fill="none" stroke="black" d="M33.36,-118.55C44.78,-110.11 61.06,-98.09 74.22,-88.38"/>
<polygon fill="black" stroke="black" points="76.36,-91.14 82.33,-82.39 72.2,-85.51 76.36,-91.14"/>
<text text-anchor="middle" x="57.9" y="-105.8" font-family="Times,serif" font-size="14.00">1</text>
</g>
<!-- 3 -->
<g id="node11" class="node">
<title>3</title>
<ellipse fill="none" stroke="black" cx="97.4" cy="-18" rx="18" ry="18"/>
<text text-anchor="middle" x="97.4" y="-14.3" font-family="Times,serif" font-size="14.00">3</text>
</g>
<!-- &#45;1&#45;&gt;3 -->
<g id="edge15" class="edge">
<title>&#45;1&#45;&gt;3</title>
<path fill="none" stroke="black" d="M29.29,-114.49C42.29,-95.79 65.05,-63.07 80.42,-40.98"/>
<polygon fill="black" stroke="black" points="83.47,-42.72 86.3,-32.51 77.72,-38.73 83.47,-42.72"/>
<text text-anchor="middle" x="57.9" y="-79.8" font-family="Times,serif" font-size="14.00">1</text>
</g>
</g>
</svg>
