<?xml version="1.0" encoding="UTF-8" standalone="no"?>
<!DOCTYPE svg PUBLIC "-//W3C//DTD SVG 1.1//EN"
 "http://www.w3.org/Graphics/SVG/1.1/DTD/svg11.dtd">
<!-- Generated by graphviz version 2.42.3 (20191010.1750)
 -->
<!-- Title: dot_graph Pages: 1 -->
<svg width="296pt" height="275pt"
 viewBox="0.00 0.00 295.99 275.00" xmlns="http://www.w3.org/2000/svg" xmlns:xlink="http://www.w3.org/1999/xlink">
<g id="graph0" class="graph" transform="scale(1 1) rotate(0) translate(4 271)">
<title>dot_graph</title>
<polygon fill="white" stroke="transparent" points="-4,4 -4,-271 291.99,-271 291.99,4 -4,4"/>
<!-- 0 -->
<g id="node1" class="node">
<title>0</title>
<ellipse fill="none" stroke="black" cx="103" cy="-249" rx="18" ry="18"/>
<text text-anchor="middle" x="103" y="-245.3" font-family="Times,serif" font-size="14.00">0</text>
</g>
<!-- 5 -->
<g id="node2" class="node">
<title>5</title>
<ellipse fill="none" stroke="black" cx="185" cy="-238" rx="18" ry="18"/>
<text text-anchor="middle" x="185" y="-234.3" font-family="Times,serif" font-size="14.00">5</text>
</g>
<!-- 0&#45;&gt;5 -->
<g id="edge1" class="edge">
<title>0&#45;&gt;5</title>
<path fill="none" stroke="black" d="M120.96,-246.67C131.46,-245.22 145.18,-243.34 157.13,-241.69"/>
<polygon fill="black" stroke="black" points="157.63,-245.16 167.06,-240.33 156.67,-238.22 157.63,-245.16"/>
<text text-anchor="middle" x="144" y="-247.8" font-family="Times,serif" font-size="14.00">1</text>
</g>
<!-- &#45;2 -->
<g id="node9" class="node">
<title>&#45;2</title>
<ellipse fill="none" stroke="black" cx="268.49" cy="-137" rx="19.5" ry="19.5"/>
<text text-anchor="middle" x="268.49" y="-133.3" font-family="Times,serif" font-size="14.00">&#45;2</text>
</g>
<!-- 5&#45;&gt;&#45;2 -->
<g id="edge8" class="edge">
<title>5&#45;&gt;&#45;2</title>
<path fill="none" stroke="black" d="M196.99,-224.38C210.37,-207.79 233.17,-179.54 249.21,-159.66"/>
<polygon fill="black" stroke="black" points="252.07,-161.69 255.62,-151.71 246.62,-157.3 252.07,-161.69"/>
<text text-anchor="middle" x="226" y="-196.8" font-family="Times,serif" font-size="14.00">1</text>
</g>
<!-- 1 -->
<g id="node3" class="node">
<title>1</title>
<ellipse fill="none" stroke="black" cx="103" cy="-184" rx="18" ry="18"/>
<text text-anchor="middle" x="103" y="-180.3" font-family="Times,serif" font-size="14.00">1</text>
</g>
<!-- 6 -->
<g id="node4" class="node">
<title>6</title>
<ellipse fill="none" stroke="black" cx="185" cy="-108" rx="18" ry="18"/>
<text text-anchor="middle" x="185" y="-104.3" font-family="Times,serif" font-size="14.00">6</text>
</g>
<!-- 1&#45;&gt;6 -->
<g id="edge2" class="edge">
<title>1&#45;&gt;6</title>
<path fill="none" stroke="black" d="M120.25,-178.54C129.42,-174.88 140.67,-169.38 149,-162 150.41,-160.75 160.11,-145.72 168.95,-131.84"/>
<polygon fill="black" stroke="black" points="172.13,-133.36 174.53,-123.04 166.22,-129.61 172.13,-133.36"/>
<text text-anchor="middle" x="144" y="-172.8" font-family="Times,serif" font-size="14.00">1</text>
</g>
<!-- 7 -->
<g id="node5" class="node">
<title>7</title>
<ellipse fill="none" stroke="black" cx="185" cy="-162" rx="18" ry="18"/>
<text text-anchor="middle" x="185" y="-158.3" font-family="Times,serif" font-size="14.00">7</text>
</g>
<!-- 1&#45;&gt;7 -->
<g id="edge3" class="edge">
<title>1&#45;&gt;7</title>
<path fill="none" stroke="black" d="M117.98,-194.48C126.97,-199.87 138.82,-204.46 149,-200 156.34,-196.78 162.82,-191.18 168.15,-185.25"/>
<polygon fill="black" stroke="black" points="171.12,-187.14 174.67,-177.15 165.67,-182.74 171.12,-187.14"/>
<text text-anchor="middle" x="144" y="-204.8" font-family="Times,serif" font-size="14.00">1</text>
</g>
<!-- 6&#45;&gt;&#45;2 -->
<g id="edge9" class="edge">
<title>6&#45;&gt;&#45;2</title>
<path fill="none" stroke="black" d="M202.1,-113.73C212.93,-117.58 227.49,-122.77 240.12,-127.26"/>
<polygon fill="black" stroke="black" points="239.13,-130.62 249.73,-130.68 241.48,-124.03 239.13,-130.62"/>
<text text-anchor="middle" x="226" y="-126.8" font-family="Times,serif" font-size="14.00">1</text>
</g>
<!-- 7&#45;&gt;&#45;2 -->
<g id="edge10" class="edge">
<title>7&#45;&gt;&#45;2</title>
<path fill="none" stroke="black" d="M202.49,-156.94C213.17,-153.66 227.35,-149.31 239.74,-145.51"/>
<polygon fill="black" stroke="black" points="241.08,-148.76 249.61,-142.49 239.03,-142.07 241.08,-148.76"/>
<text text-anchor="middle" x="226" y="-153.8" font-family="Times,serif" font-size="14.00">1</text>
</g>
<!-- 2 -->
<g id="node6" class="node">
<title>2</title>
<ellipse fill="none" stroke="black" cx="103" cy="-129" rx="18" ry="18"/>
<text text-anchor="middle" x="103" y="-125.3" font-family="Times,serif" font-size="14.00">2</text>
</g>
<!-- 2&#45;&gt;6 -->
<g id="edge4" class="edge">
<title>2&#45;&gt;6</title>
<path fill="none" stroke="black" d="M117.93,-118.91C124.07,-115.04 131.58,-111.06 139,-109 144.64,-107.43 150.84,-106.7 156.79,-106.44"/>
<polygon fill="black" stroke="black" points="157.05,-109.94 167.04,-106.42 157.03,-102.94 157.05,-109.94"/>
<text text-anchor="middle" x="144" y="-112.8" font-family="Times,serif" font-size="14.00">1</text>
</g>
<!-- 2&#45;&gt;7 -->
<g id="edge5" class="edge">
<title>2&#45;&gt;7</title>
<path fill="none" stroke="black" d="M120.28,-135.4C128.85,-138.8 139.51,-143.07 149,-147 152.11,-148.29 155.37,-149.66 158.6,-151.03"/>
<polygon fill="black" stroke="black" points="157.43,-154.34 168,-155.05 160.18,-147.9 157.43,-154.34"/>
<text text-anchor="middle" x="144" y="-150.8" font-family="Times,serif" font-size="14.00">1</text>
</g>
<!-- 4 -->
<g id="node7" class="node">
<title>4</title>
<ellipse fill="none" stroke="black" cx="103" cy="-72" rx="18" ry="18"/>
<text text-anchor="middle" x="103" y="-68.3" font-family="Times,serif" font-size="14.00">4</text>
</g>
<!-- 4&#45;&gt;6 -->
<g id="edge6" class="edge">
<title>4&#45;&gt;6</title>
<path fill="none" stroke="black" d="M120.52,-77.09C129.15,-79.95 139.8,-83.78 149,-88 152.75,-89.72 156.64,-91.72 160.4,-93.76"/>
<polygon fill="black" stroke="black" points="158.89,-96.94 169.32,-98.84 162.35,-90.85 158.89,-96.94"/>
<text text-anchor="middle" x="144" y="-91.8" font-family="Times,serif" font-size="14.00">1</text>
</g>
<!-- 8 -->
<g id="node8" class="node">
<title>8</title>
<ellipse fill="none" stroke="black" cx="185" cy="-43" rx="18" ry="18"/>
<text text-anchor="middle" x="185" y="-39.3" font-family="Times,serif" font-size="14.00">8</text>
</g>
<!-- 4&#45;&gt;8 -->
<g id="edge7" class="edge">
<title>4&#45;&gt;8</title>
<path fill="none" stroke="black" d="M112.96,-56.86C119.07,-48.11 128.03,-37.89 139,-33 145.14,-30.26 152.09,-30.4 158.67,-31.81"/>
<polygon fill="black" stroke="black" points="157.92,-35.25 168.51,-34.87 160,-28.56 157.92,-35.25"/>
<text text-anchor="middle" x="144" y="-36.8" font-family="Times,serif" font-size="14.00">1</text>
</g>
<!-- 8&#45;&gt;&#45;2 -->
<g id="edge11" class="edge">
<title>8&#45;&gt;&#45;2</title>
<path fill="none" stroke="black" d="M197.67,-56.47C210.88,-71.7 232.59,-96.74 248.29,-114.85"/>
<polygon fill="black" stroke="black" points="245.84,-117.37 255.04,-122.63 251.13,-112.78 245.84,-117.37"/>
<text text-anchor="middle" x="226" y="-95.8" font-family="Times,serif" font-size="14.00">1</text>
</g>
<!-- &#45;1 -->
<g id="node10" class="node">
<title>&#45;1</title>
<ellipse fill="none" stroke="black" cx="19.5" cy="-129" rx="19.5" ry="19.5"/>
<text text-anchor="middle" x="19.5" y="-125.3" font-family="Times,serif" font-size="14.00">&#45;1</text>
</g>
<!-- &#45;1&#45;&gt;0 -->
<g id="edge12" class="edge">
<title>&#45;1&#45;&gt;0</title>
<path fill="none" stroke="black" d="M31.15,-144.69C45.23,-165.42 70.14,-202.1 86.36,-225.97"/>
<polygon fill="black" stroke="black" points="83.59,-228.13 92.11,-234.44 89.38,-224.2 83.59,-228.13"/>
<text text-anchor="middle" x="62" y="-199.8" font-family="Times,serif" font-size="14.00">1</text>
</g>
<!-- &#45;1&#45;&gt;1 -->
<g id="edge13" class="edge">
<title>&#45;1&#45;&gt;1</title>
<path fill="none" stroke="black" d="M36.21,-139.6C48.43,-147.85 65.55,-159.4 79.26,-168.66"/>
<polygon fill="black" stroke="black" points="77.45,-171.66 87.7,-174.35 81.36,-165.85 77.45,-171.66"/>
<text text-anchor="middle" x="62" y="-162.8" font-family="Times,serif" font-size="14.00">1</text>
</g>
<!-- &#45;1&#45;&gt;2 -->
<g id="edge14" class="edge">
<title>&#45;1&#45;&gt;2</title>
<path fill="none" stroke="black" d="M39.4,-129C49.91,-129 63.18,-129 74.79,-129"/>
<polygon fill="black" stroke="black" points="74.86,-132.5 84.86,-129 74.86,-125.5 74.86,-132.5"/>
<text text-anchor="middle" x="62" y="-132.8" font-family="Times,serif" font-size="14.00">1</text>
</g>
<!-- &#45;1&#45;&gt;4 -->
<g id="edge16" class="edge">
<title>&#45;1&#45;&gt;4</title>
<path fill="none" stroke="black" d="M35.83,-118.28C48.08,-109.71 65.44,-97.56 79.31,-87.87"/>
<polygon fill="black" stroke="black" points="81.64,-90.51 87.83,-81.91 77.63,-84.77 81.64,-90.51"/>
<text text-anchor="middle" x="62" y="-105.8" font-family="Times,serif" font-size="14.00">1</text>
</g>
<!-- 3 -->
<g id="node11" class="node">
<title>3</title>
<ellipse fill="none" stroke="black" cx="103" cy="-18" rx="18" ry="18"/>
<text text-anchor="middle" x="103" y="-14.3" font-family="Times,serif" font-size="14.00">3</text>
</g>
<!-- &#45;1&#45;&gt;3 -->
<g id="edge15" class="edge">
<title>&#45;1&#45;&gt;3</title>
<path fill="none" stroke="black" d="M31.59,-113.31C38.78,-103.19 48.37,-89.77 57,-78 66.2,-65.45 76.61,-51.53 85.11,-40.27"/>
<polygon fill="black" stroke="black" points="87.94,-42.33 91.18,-32.24 82.36,-38.11 87.94,-42.33"/>
<text text-anchor="middle" x="62" y="-81.8" font-family="Times,serif" font-size="14.00">1</text>
</g>
</g>
</svg>
