<?xml version="1.0" encoding="UTF-8" standalone="no"?>
<!DOCTYPE svg PUBLIC "-//W3C//DTD SVG 1.1//EN"
 "http://www.w3.org/Graphics/SVG/1.1/DTD/svg11.dtd">
<!-- Generated by graphviz version 2.42.3 (20191010.1750)
 -->
<!-- Title: dot_graph Pages: 1 -->
<svg width="417pt" height="154pt"
 viewBox="0.00 0.00 417.00 154.00" xmlns="http://www.w3.org/2000/svg" xmlns:xlink="http://www.w3.org/1999/xlink">
<g id="graph0" class="graph" transform="scale(1 1) rotate(0) translate(4 150)">
<title>dot_graph</title>
<polygon fill="white" stroke="transparent" points="-4,4 -4,-150 413,-150 413,4 -4,4"/>
<!-- 0 -->
<g id="node1" class="node">
<title>0</title>
<ellipse fill="none" stroke="black" cx="18" cy="-77" rx="18" ry="18"/>
<text text-anchor="middle" x="18" y="-73.3" font-family="Times,serif" font-size="14.00">0</text>
</g>
<!-- 2 -->
<g id="node2" class="node">
<title>2</title>
<ellipse fill="none" stroke="black" cx="209" cy="-128" rx="18" ry="18"/>
<text text-anchor="middle" x="209" y="-124.3" font-family="Times,serif" font-size="14.00">2</text>
</g>
<!-- 0&#45;&gt;2 -->
<g id="edge1" class="edge">
<title>0&#45;&gt;2</title>
<path fill="none" stroke="black" d="M34.04,-85.93C40.12,-89.34 47.27,-93.09 54,-96 93.09,-112.89 103.07,-118.58 145,-126 156.6,-128.05 169.57,-128.73 180.72,-128.83"/>
<polygon fill="black" stroke="black" points="180.77,-132.33 190.75,-128.77 180.73,-125.33 180.77,-132.33"/>
<text text-anchor="middle" x="109" y="-125.8" font-family="Times,serif" font-size="14.00">8</text>
</g>
<!-- 3 -->
<g id="node3" class="node">
<title>3</title>
<ellipse fill="none" stroke="black" cx="109" cy="-77" rx="18" ry="18"/>
<text text-anchor="middle" x="109" y="-73.3" font-family="Times,serif" font-size="14.00">3</text>
</g>
<!-- 0&#45;&gt;3 -->
<g id="edge2" class="edge">
<title>0&#45;&gt;3</title>
<path fill="none" stroke="black" d="M36.16,-77C48.72,-77 66.02,-77 80.5,-77"/>
<polygon fill="black" stroke="black" points="80.89,-80.5 90.89,-77 80.89,-73.5 80.89,-80.5"/>
<text text-anchor="middle" x="63.5" y="-80.8" font-family="Times,serif" font-size="14.00">10</text>
</g>
<!-- 1 -->
<g id="node4" class="node">
<title>1</title>
<ellipse fill="none" stroke="black" cx="209" cy="-18" rx="18" ry="18"/>
<text text-anchor="middle" x="209" y="-14.3" font-family="Times,serif" font-size="14.00">1</text>
</g>
<!-- 0&#45;&gt;1 -->
<g id="edge3" class="edge">
<title>0&#45;&gt;1</title>
<path fill="none" stroke="black" d="M32.82,-66.75C46.76,-56.95 69.28,-42.59 91,-35 120.57,-24.67 156.47,-20.61 180.64,-19.02"/>
<polygon fill="black" stroke="black" points="181.07,-22.5 190.85,-18.45 180.68,-15.51 181.07,-22.5"/>
<text text-anchor="middle" x="109" y="-38.8" font-family="Times,serif" font-size="14.00">7</text>
</g>
<!-- 4 -->
<g id="node5" class="node">
<title>4</title>
<ellipse fill="none" stroke="black" cx="300" cy="-71" rx="18" ry="18"/>
<text text-anchor="middle" x="300" y="-67.3" font-family="Times,serif" font-size="14.00">4</text>
</g>
<!-- 2&#45;&gt;4 -->
<g id="edge4" class="edge">
<title>2&#45;&gt;4</title>
<path fill="none" stroke="black" d="M224.7,-118.59C238.48,-109.76 259.33,-96.41 275.43,-86.09"/>
<polygon fill="black" stroke="black" points="277.75,-88.77 284.28,-80.43 273.97,-82.87 277.75,-88.77"/>
<text text-anchor="middle" x="254.5" y="-107.8" font-family="Times,serif" font-size="14.00">12</text>
</g>
<!-- 3&#45;&gt;2 -->
<g id="edge9" class="edge">
<title>3&#45;&gt;2</title>
<path fill="none" stroke="black" d="M125.31,-84.97C140.99,-93.13 165.59,-105.93 183.88,-115.45"/>
<polygon fill="black" stroke="black" points="182.31,-118.58 192.8,-120.09 185.54,-112.37 182.31,-118.58"/>
<text text-anchor="middle" x="159" y="-111.8" font-family="Times,serif" font-size="14.00">2</text>
</g>
<!-- 3&#45;&gt;1 -->
<g id="edge10" class="edge">
<title>3&#45;&gt;1</title>
<path fill="none" stroke="black" d="M122.7,-65.17C129.1,-59.56 137.15,-53.01 145,-48 156.81,-40.46 170.8,-33.61 182.6,-28.37"/>
<polygon fill="black" stroke="black" points="184.09,-31.54 191.89,-24.36 181.32,-25.11 184.09,-31.54"/>
<text text-anchor="middle" x="159" y="-51.8" font-family="Times,serif" font-size="14.00">111</text>
</g>
<!-- 3&#45;&gt;4 -->
<g id="edge8" class="edge">
<title>3&#45;&gt;4</title>
<path fill="none" stroke="black" d="M127.11,-76.46C159.98,-75.41 232.24,-73.12 271.8,-71.86"/>
<polygon fill="black" stroke="black" points="271.91,-75.36 281.8,-71.55 271.69,-68.37 271.91,-75.36"/>
<text text-anchor="middle" x="209" y="-77.8" font-family="Times,serif" font-size="14.00">5</text>
</g>
<!-- 1&#45;&gt;4 -->
<g id="edge5" class="edge">
<title>1&#45;&gt;4</title>
<path fill="none" stroke="black" d="M225.3,-26.11C236.21,-31.98 251.15,-40.23 264,-48 267.96,-50.39 272.11,-53.02 276.11,-55.61"/>
<polygon fill="black" stroke="black" points="274.23,-58.56 284.51,-61.13 278.08,-52.71 274.23,-58.56"/>
<text text-anchor="middle" x="254.5" y="-51.8" font-family="Times,serif" font-size="14.00">1</text>
</g>
<!-- 5 -->
<g id="node6" class="node">
<title>5</title>
<ellipse fill="none" stroke="black" cx="391" cy="-30" rx="18" ry="18"/>
<text text-anchor="middle" x="391" y="-26.3" font-family="Times,serif" font-size="14.00">5</text>
</g>
<!-- 1&#45;&gt;5 -->
<g id="edge6" class="edge">
<title>1&#45;&gt;5</title>
<path fill="none" stroke="black" d="M227.26,-19.15C258.57,-21.24 324.98,-25.67 362.57,-28.17"/>
<polygon fill="black" stroke="black" points="362.58,-31.68 372.79,-28.85 363.05,-24.7 362.58,-31.68"/>
<text text-anchor="middle" x="300" y="-29.8" font-family="Times,serif" font-size="14.00">21</text>
</g>
<!-- 4&#45;&gt;5 -->
<g id="edge7" class="edge">
<title>4&#45;&gt;5</title>
<path fill="none" stroke="black" d="M316.91,-63.67C330.2,-57.55 349.39,-48.71 364.77,-41.62"/>
<polygon fill="black" stroke="black" points="366.61,-44.63 374.23,-37.27 363.68,-38.27 366.61,-44.63"/>
<text text-anchor="middle" x="345.5" y="-57.8" font-family="Times,serif" font-size="14.00">14</text>
</g>
</g>
</svg>
